<svg width="15" height="20" viewBox="0 0 15 20" fill="none" xmlns="http://www.w3.org/2000/svg">
<path d="M9.375 20V16.9231H15V13.8462H9.375V12.1154C11.0156 11.7708 12.3633 11.0457 13.418 9.9399C14.4727 8.83414 15 7.57212 15 6.15385C15 4.45513 14.2676 3.00481 12.8027 1.80288C11.3379 0.600962 9.57031 0 7.5 0C5.42969 0 3.66211 0.600962 2.19727 1.80288C0.732422 3.00481 0 4.45513 0 6.15385C0 7.57212 0.527344 8.83414 1.58203 9.9399C2.63672 11.0457 3.98438 11.7708 5.625 12.1154V13.8462H0V16.9231H5.625V20H9.375ZM7.5 3.07692C8.53516 3.07692 9.41895 3.3774 10.1514 3.97837C10.8838 4.57933 11.25 5.30449 11.25 6.15385C11.25 7.00321 10.8838 7.72837 10.1514 8.32933C9.41895 8.93029 8.53516 9.23077 7.5 9.23077C6.46484 9.23077 5.58105 8.93029 4.84863 8.32933C4.11621 7.72837 3.75 7.00321 3.75 6.15385C3.75 5.30449 4.11621 4.57933 4.84863 3.97837C5.58105 3.3774 6.46484 3.07692 7.5 3.07692Z" fill="white" fill-opacity="0.56"/>
</svg>
