<svg width="28" height="28" viewBox="0 0 28 28" fill="none" xmlns="http://www.w3.org/2000/svg">
<g filter="url(#filter0_d_20_42)">
<path d="M10.6667 6.66667C8.82639 6.66667 7.25521 7.31771 5.95312 8.61979C4.65104 9.92188 4 11.4931 4 13.3333C4 15.1736 4.65104 16.7448 5.95312 18.0469C7.25521 19.349 8.82639 20 10.6667 20C12.5069 20 14.0781 19.349 15.3802 18.0469C16.6823 16.7448 17.3333 15.1736 17.3333 13.3333C17.3333 12.1181 17.0252 10.9896 16.4089 9.94792L20.6667 5.6901V10.8333H24V0H13.1667V3.34635H18.2969L14.0521 7.59115C13.0104 6.97483 11.8819 6.66667 10.6667 6.66667ZM10.6667 10C11.5868 10 12.3724 10.3255 13.0234 10.9766C13.6745 11.6276 14 12.4132 14 13.3333C14 14.2535 13.6745 15.0391 13.0234 15.6901C12.3724 16.3411 11.5868 16.6667 10.6667 16.6667C9.74653 16.6667 8.96094 16.3411 8.3099 15.6901C7.65885 15.0391 7.33333 14.2535 7.33333 13.3333C7.33333 12.4132 7.65885 11.6276 8.3099 10.9766C8.96094 10.3255 9.74653 10 10.6667 10Z" fill="white" fill-opacity="0.56"/>
</g>
<defs>
<filter id="filter0_d_20_42" x="0" y="0" width="28" height="28" filterUnits="userSpaceOnUse" color-interpolation-filters="sRGB">
<feFlood flood-opacity="0" result="BackgroundImageFix"/>
<feColorMatrix in="SourceAlpha" type="matrix" values="0 0 0 0 0 0 0 0 0 0 0 0 0 0 0 0 0 0 127 0" result="hardAlpha"/>
<feOffset dy="4"/>
<feGaussianBlur stdDeviation="2"/>
<feComposite in2="hardAlpha" operator="out"/>
<feColorMatrix type="matrix" values="0 0 0 0 0 0 0 0 0 0 0 0 0 0 0 0 0 0 0.25 0"/>
<feBlend mode="normal" in2="BackgroundImageFix" result="effect1_dropShadow_20_42"/>
<feBlend mode="normal" in="SourceGraphic" in2="effect1_dropShadow_20_42" result="shape"/>
</filter>
</defs>
</svg>
